<svg width="156" height="39" viewBox="0 0 156 39" fill="none" xmlns="http://www.w3.org/2000/svg">
<g clip-path="url(#clip0_1_18)">
<path d="M47.0852 27.4225L50.4941 12.7183H54.9683L49.6845 31.0986H44.145L38.9038 12.7183H43.5911L46.9147 27.4225H47.0852Z" fill="#E30613"/>
<path d="M58.5478 14.3662C57.0564 14.3662 56.0337 13.3521 56.0337 12C56.0337 10.6479 57.0564 9.63379 58.5478 9.63379C60.0392 9.63379 61.1044 10.6479 61.1044 12C61.0618 13.3521 60.0392 14.3662 58.5478 14.3662ZM56.4172 31.0986V16.9859H60.6783V31.0563H56.4172V31.0986Z" fill="#E30613"/>
<path d="M71.8426 17.831V10.9437L76.1037 11.4085V31.0986H72.3539L72.1409 29.5775C71.3312 30.6761 69.9677 31.5634 68.0928 31.5634C64.3856 31.5634 62.6812 28.6056 62.6812 24.0423C62.6812 19.6901 64.8969 16.5634 68.6041 16.5634C69.8398 16.5211 70.9904 16.9859 71.8426 17.831ZM67.1127 24.0423C67.1127 27.5493 68.0076 28.4366 69.4563 28.4366C70.3512 28.4366 71.2034 27.8451 71.8 26.831V20.7465C71.2034 20.0282 70.5642 19.6056 69.6694 19.6056C68.178 19.6056 67.1127 20.8732 67.1127 24.0423Z" fill="#E30613"/>
<path d="M82.4954 25.2676C82.7937 27.5493 83.9868 28.4366 85.6913 28.4366C86.7992 28.4366 87.8218 28.0563 89.0149 27.169L90.8046 29.5775C89.3984 30.676 87.5662 31.5211 85.3078 31.5211C80.4501 31.5211 78.1064 28.4366 78.1064 24.0422C78.1064 19.8591 80.4501 16.5211 84.839 16.5211C88.8871 16.5211 91.3586 19.1831 91.3586 23.7465C91.3586 24.2113 91.3159 24.8451 91.2733 25.2676H82.4954ZM82.4528 22.7324H87.14C87.0974 20.7465 86.5861 19.3521 84.839 19.3521C83.4755 19.3521 82.6232 20.4084 82.4528 22.7324Z" fill="#E30613"/>
<path d="M99.5395 16.5211C103.886 16.5211 106.528 19.4789 106.528 24C106.528 28.7324 103.886 31.5211 99.5395 31.5211C95.1506 31.5211 92.5513 28.7746 92.5513 24C92.5513 19.5634 95.1932 16.5211 99.5395 16.5211ZM99.5395 19.6479C97.8351 19.6479 96.9828 20.9577 96.9828 24.0422C96.9828 27.1268 97.7925 28.4366 99.5395 28.4366C101.244 28.4366 102.096 27.1268 102.096 24C102.096 20.9577 101.244 19.6479 99.5395 19.6479Z" fill="#E30613"/>
<path d="M114.156 31.0986H109.724V12.7183H114.156V31.0986ZM114.326 21.2535L120.164 12.7183H124.851L118.971 20.9577L125.32 31.0986H120.207L114.326 21.2535Z" fill="white"/>
<path d="M132.99 31.5211C127.791 31.5211 124.681 28.0141 124.681 21.8873C124.681 15.8873 127.791 12.2535 132.99 12.2535C138.188 12.2535 141.299 15.7606 141.299 21.8873C141.299 27.8873 138.188 31.5211 132.99 31.5211ZM132.99 15.4648C130.604 15.4648 129.283 17.1972 129.283 21.8873C129.283 26.5352 130.604 28.3098 132.99 28.3098C135.461 28.3098 136.697 26.5352 136.697 21.8873C136.654 17.1972 135.376 15.4648 132.99 15.4648Z" fill="white"/>
<path d="M151.015 16.0563V31.0563H146.583V16.0563H141.811V12.6761H156.043L155.574 16.0563H151.015Z" fill="white"/>
<path d="M17.2142 39C16.9586 39 16.6603 39 16.4046 39C7.62668 38.5775 0.425372 31.4366 -0.000741087 22.7324C-0.213798 18 1.49065 13.5211 4.77173 10.0986C7.92496 6.80282 12.1435 4.94366 16.7029 4.8169C17.3847 3.76056 19.0891 1.35211 20.8788 0.422535L21.731 0L22.1571 0.84507C22.1998 0.929577 23.0094 2.49296 23.3503 4.14085C24.2877 4.35211 25.9495 4.8169 27.5262 5.87324C28.2079 5.61972 29.4863 5.19718 30.8072 4.98592L31.8299 4.8169L31.9577 5.83099C32.0003 6.12676 32.6395 12.9296 28.2932 16.9859C27.9097 17.3662 27.2705 17.3239 26.9296 16.9437C26.5461 16.5634 26.5887 15.9296 26.9722 15.5915C29.6993 13.0563 30.0828 9.04225 30.0828 7.09859C28.8045 7.43662 27.7818 7.85916 27.7818 7.85916L27.2705 8.07042L26.8018 7.73239C24.8417 6.21127 22.4554 5.91549 22.4128 5.91549L21.6458 5.83099L21.518 5.07042C21.4327 4.26761 21.1345 3.38028 20.8788 2.74648C19.6857 3.80282 18.4926 5.53521 18.0665 6.25352L17.7682 6.76056H17.2142C12.9957 6.76056 9.07547 8.40845 6.13529 11.4507C3.28033 14.493 1.74632 18.4648 1.95938 22.6479C2.30027 30.3803 8.69197 36.7183 16.4898 37.0563C24.7138 37.4366 31.9151 31.0986 32.4691 22.9859C32.5117 22.4366 32.9804 22.0563 33.4917 22.0986C34.0457 22.1408 34.4292 22.6056 34.3866 23.1127C34.1309 27.5493 32.0856 31.6479 28.7193 34.6479C25.566 37.4789 21.4754 39 17.2142 39Z" fill="white"/>
<path d="M21.1776 10.3099C20.6237 11.2394 19.7714 11.7887 19.7714 11.7887C19.7714 11.7887 19.7714 10.7747 20.2828 9.84508C20.4106 9.63381 20.4958 9.4648 20.6237 9.29578C20.1975 9.00001 19.6862 8.83099 19.3027 8.87325C18.4505 9.63381 18.4079 10.9859 19.3027 11.7042C20.2402 12.4648 21.6037 12.4648 22.1151 11.9155C22.2003 11.2394 21.8594 10.5211 21.3481 9.97184C21.3481 10.0563 21.2628 10.1831 21.1776 10.3099Z" fill="white"/>
<path d="M25.9928 11.9155C25.9075 12.1268 25.7797 12.338 25.6945 12.5493C25.1832 13.4366 24.4162 13.9437 24.4162 13.9437C24.4162 13.9437 24.4588 13.0141 24.9275 12.1268C25.0127 12 25.0979 11.8733 25.1405 11.7465C24.3735 11.662 23.5213 11.831 23.01 12.2958C22.8821 12.9718 23.6492 13.9859 24.7997 14.2817C25.8649 14.5352 26.8876 13.7324 26.9728 12.6338C26.8024 12.2958 26.4615 12.0423 25.9928 11.9155Z" fill="white"/>
<path d="M17.2151 15.507C16.5333 15.507 15.8941 15.6338 15.2549 15.8028C15.4254 15.8873 15.6384 16.0141 15.8089 16.1409C17.3855 17.4085 17.6412 19.7324 16.3628 21.2958C15.0845 22.8592 12.7409 23.1127 11.1643 21.8451C11.0364 21.7183 10.9086 21.5916 10.7808 21.4648C10.7808 21.5916 10.7808 21.7606 10.7808 21.8873C10.7808 25.4366 13.6783 28.3099 17.2577 28.3099C20.837 28.3099 23.7346 25.4366 23.7346 21.8873C23.692 18.3803 20.7944 15.507 17.2151 15.507ZM20.2405 25.8169C19.7717 25.4366 19.6865 24.7183 20.07 24.2535C20.4535 23.7887 21.1779 23.7042 21.6466 24.0845C22.1154 24.4648 22.2006 25.1831 21.8171 25.6479C21.4336 26.1127 20.7092 26.1972 20.2405 25.8169Z" fill="#E30613"/>
<path d="M17.2149 30.6338C12.3573 30.6338 8.43701 26.7465 8.43701 21.9296C8.43701 17.1127 12.3573 13.2253 17.2149 13.2253C22.0726 13.2253 25.9929 17.1127 25.9929 21.9296C26.0355 26.7042 22.0726 30.6338 17.2149 30.6338ZM17.2149 14.0704C12.8686 14.0704 9.28924 17.5775 9.28924 21.9296C9.28924 26.2394 12.826 29.7887 17.2149 29.7887C21.6039 29.7887 25.1406 26.2394 25.1406 21.9296C25.1406 17.5775 21.6039 14.0704 17.2149 14.0704Z" fill="#E30613"/>
</g>
<defs>
<clipPath id="clip0_1_18">
<rect width="156" height="39" fill="white"/>
</clipPath>
</defs>
</svg>
